<svg width="1550" height="1550" viewBox="0 0 1550 1550" fill="none" xmlns="http://www.w3.org/2000/svg">
<path d="M795.425 1440.57C788.662 1440.57 781.898 1438.04 775.134 1432.96C768.37 1427.89 763.72 1415.21 761.184 1394.92L704.115 892.7L687.628 801.388C681.71 766.724 675.368 740.514 668.605 722.759C662.686 704.158 656.345 688.517 649.582 675.834C642.818 663.152 636.054 653.852 629.29 647.934C623.372 642.015 620.413 635.251 620.413 627.642C620.413 618.342 627.177 608.619 640.704 598.473C654.232 588.327 671.141 579.027 691.432 570.572C711.724 561.272 732.861 554.085 754.843 549.012C776.825 543.094 796.694 540.135 814.449 540.135C838.967 540.135 856.299 557.467 866.445 592.132C876.591 625.951 884.623 687.248 890.541 776.024L907.662 1046.15L924.783 1316.29L857.568 1328.97L1054.14 800.12C1063.44 775.601 1068.94 755.31 1070.63 739.245C1073.16 723.181 1074.43 708.385 1074.43 694.858C1074.43 680.485 1075.28 664.843 1076.97 647.934C1078.66 631.869 1087.96 617.496 1104.87 604.814C1121.78 591.286 1141.65 579.872 1164.47 570.572C1188.15 560.426 1210.97 552.817 1232.96 547.744C1255.79 542.671 1273.96 540.135 1287.49 540.135C1311.16 540.135 1323 547.744 1323 562.963C1323 568.036 1321.73 573.531 1319.2 579.45C1317.5 585.368 1314.55 592.977 1310.32 602.278L981.852 1356.87C976.779 1368.71 964.52 1381.39 945.074 1394.92C926.474 1407.6 904.069 1418.17 877.859 1426.62C851.649 1435.92 824.172 1440.57 795.425 1440.57ZM394.672 1440.57C381.99 1440.57 371.844 1438.46 364.235 1434.23C356.625 1430 351.975 1419.86 350.284 1403.79L290.679 855.922C286.451 817.03 281.801 786.17 276.728 763.342C272.501 739.668 268.274 721.49 264.046 708.808C259.819 695.28 255.592 684.289 251.364 675.834C245.446 663.152 239.528 653.852 233.609 647.934C228.536 642.015 226 635.251 226 627.642C226 618.342 232.764 608.619 246.291 598.473C260.664 588.327 277.997 579.027 298.288 570.572C319.425 561.272 340.984 554.085 362.966 549.012C385.794 543.094 406.086 540.135 423.84 540.135C440.75 540.135 453.855 547.744 463.155 562.963C473.301 577.336 480.91 601.855 485.983 636.52C491.901 670.339 496.128 716.84 498.665 776.024L520.224 1304.87L446.668 1320.09L730.747 711.345L743.429 954.843L564.612 1356.87C554.466 1378.85 534.597 1398.3 505.006 1415.21C476.26 1432.12 439.482 1440.57 394.672 1440.57Z" fill="white"/>
<path d="M840.592 206.333C877.809 287.264 846.302 381.234 770.218 416.223C694.133 451.212 602.285 413.969 565.067 333.039C530.28 235.314 445.623 177.056 635.442 123.149C711.526 88.1604 803.375 125.403 840.592 206.333Z" fill="white"/>
</svg>
